<svg width="171" height="306" viewBox="0 0 171 306" fill="none" xmlns="http://www.w3.org/2000/svg">
<path fill-rule="evenodd" clip-rule="evenodd" d="M153.768 0.732233C152.791 -0.244078 151.209 -0.244078 150.232 0.732233L134.322 16.6421C133.346 17.6184 133.346 19.2014 134.322 20.1777C135.299 21.154 136.882 21.154 137.858 20.1777L149.5 8.53553L149.5 296.464L137.858 284.822C136.882 283.846 135.299 283.846 134.322 284.822C133.346 285.799 133.346 287.382 134.322 288.358L150.232 304.268C151.208 305.244 152.791 305.244 153.768 304.268L169.678 288.358C170.654 287.382 170.654 285.799 169.678 284.822C168.701 283.846 167.118 283.846 166.142 284.822L154.5 296.464L154.5 8.53553L166.142 20.1777C167.118 21.154 168.701 21.154 169.678 20.1777C170.654 19.2014 170.654 17.6185 169.678 16.6421L153.768 0.732233ZM117 2.5H64V6.5H117V2.5ZM87.0273 69.3103C87.1475 68.4374 86.5681 67.6294 85.7182 67.4525C85.5536 67.2855 85.3345 67.1701 85.0852 67.1365C69.7736 65.0714 55.5309 67.267 44.0197 73.5485C36.03 77.9084 29.3685 84.2309 24.5834 92.4641C22.0012 96.4597 20.2449 100.329 19.234 103.571C18.96 104.449 19.45 105.383 20.3283 105.657C21.2066 105.931 22.1407 105.441 22.4146 104.563C26.6077 91.1182 45.0008 65.2069 85.1498 70.7334C86.0613 70.8589 86.9019 70.2217 87.0273 69.3103ZM93.3969 46.9166C93.1707 47.1404 92.4539 47.8493 91.3143 48.5732C88.0239 49.9698 84.6331 50.2941 81.5481 49.6458C80.2021 49.3614 78.9138 48.8912 77.7171 48.2436C77.262 47.9775 76.7979 47.6829 76.3251 47.3577C76.264 47.3157 76.2011 47.2784 76.1369 47.2456C75.1836 46.5493 74.3099 45.7243 73.5375 44.7761C71.7827 42.0452 69.9238 38.9845 68.8479 34.2645C68.7373 33.5486 68.6006 32.8459 68.4444 32.1626C68.1082 30.0909 67.9217 27.7266 67.9282 24.9849H67.8978C68.4709 20.1477 72.7677 15.8052 78.2035 13.5297C81.1576 12.2847 84.4351 11.6752 87.6323 11.9246C90.7603 12.1741 93.8207 13.2564 96.4193 15.4082C102.495 20.4319 106.232 31.2862 103.211 50.8886C101.599 61.3349 104.029 67.536 106.889 74.8346L106.891 74.84C108.969 80.1392 111.288 86.0586 112.277 94.785C114.273 112.387 107.054 128.942 99.9199 145.293C93.2886 160.487 86.7337 175.513 87.2998 191.471C87.5122 197.481 89.1086 205.452 90.9095 214.443L90.9135 214.463C92.9785 224.762 95.3103 236.406 96.076 247.538C97.7008 271.246 92.1345 293.089 60.8322 295.234C27.6279 297.511 23.8654 254.696 20.6577 218.195L20.6557 218.171C19.311 202.809 18.0551 188.537 14.7407 178.728C9.91013 164.431 7.07293 152.644 5.67387 142.632C4.28779 132.713 4.31817 124.529 5.21402 117.351C5.51771 114.907 6.1142 112.748 6.69987 110.653L6.70961 110.618C7.93806 106.185 9.09096 102.024 7.72588 96.1571L7.68901 95.9901L7.61526 95.8166C5.85615 91.5503 4.00805 85.7542 4.44404 80.8781C4.82386 76.6743 7.09889 73.0974 13.1877 71.9912C15.0965 75.6661 16.2852 78.6397 17.0378 81.6244C17.1441 82.0539 17.2439 82.4877 17.3372 82.9237C17.5303 84.5787 17.1203 86.5179 16.1811 88.1794C15.5634 89.2661 14.7221 90.2225 13.6787 90.8773C12.9554 91.1963 12.0665 91.4669 10.9714 91.6494C10.0639 91.8006 9.4508 92.6589 9.60205 93.5665C9.75331 94.474 10.6116 95.0871 11.5191 94.9358C14.7995 94.3891 16.9385 93.1206 18.2952 91.6284C18.3245 92.2935 18.3497 92.982 18.3741 93.6976C18.4045 94.6 19.1572 95.3136 20.066 95.2833C20.9684 95.2529 21.682 94.5002 21.6516 93.5913C21.4846 88.4677 21.181 84.6349 20.2222 80.8107C19.3589 77.3901 17.9837 74.015 15.7322 69.7787L15.615 69.2495C15.4415 68.473 15.3548 67.5836 15.3482 66.6314C15.3374 63.6772 16.0641 60.07 17.6627 57.0159C19.1551 54.1617 21.4131 51.8299 24.5106 51.151C24.94 51.0577 25.3825 50.9883 25.8294 50.9579C27.9009 54.8688 29.1698 57.9858 29.9529 61.1136C30.8465 64.6903 31.1328 68.3213 31.289 73.204C31.3194 74.1064 32.0721 74.82 32.9809 74.7896C33.8833 74.7593 34.5969 74.0066 34.5666 73.0977C34.3995 67.9741 34.0959 64.1413 33.1371 60.3171C32.3107 57.0093 30.9984 53.7448 28.8705 49.7016L28.5842 48.3155C28.0614 45.7972 28.7317 43.5327 30.0201 41.6543C31.0569 40.138 32.4885 38.8626 34.0243 37.88L34.0308 37.8865C35.5925 36.8909 37.228 36.2206 38.6705 35.9213C39.9286 35.661 40.9286 35.6675 41.4079 35.9907L42.1042 36.4635C44.3362 40.6171 45.6745 43.8644 46.4945 47.1224C47.3881 50.699 47.6744 54.3301 47.8306 59.2127C47.861 60.1151 48.6137 60.8288 49.5225 60.7984C50.4249 60.768 51.1385 60.0153 51.1082 59.1065C50.9895 55.3422 50.7955 52.2746 50.3186 49.394C53.1747 50.4955 55.7246 50.3229 57.7706 49.6507C60.4016 48.7863 62.0608 47.1442 62.4211 46.7876L62.4228 46.7859C63.0768 46.1387 63.0822 45.0839 62.435 44.43C61.7879 43.7761 60.7331 43.7706 60.0792 44.4178C59.8209 44.6734 58.6116 45.8674 56.7306 46.4854C55.2684 46.9658 53.3046 47.1328 50.9161 46.0307C50.5342 45.7653 50.1728 45.4507 49.8391 45.0833C49.5332 44.7471 49.2469 44.3632 48.9866 43.9207C48.0864 41.1486 46.798 38.2615 44.9325 34.8039L44.8089 33.8907C44.5833 32.2183 45.169 30.6501 46.2448 29.3377C47.5808 27.7131 49.6284 26.4507 51.9038 25.7544C54.2854 25.0277 56.8969 24.9084 59.1854 25.3379C59.4587 25.3878 59.7211 25.442 59.9814 25.5114V25.518C59.9869 25.518 59.9918 25.5185 59.9963 25.5192L60.0004 25.52L60.0064 25.5212C60.014 25.5228 60.0216 25.5245 60.0313 25.5245C60.3914 25.6177 60.7341 25.724 61.0638 25.8412C62.7817 26.6372 63.9748 28.6523 64.7774 31.1837C64.94 31.6869 65.0832 32.2032 65.2068 32.7389C65.337 33.5523 65.4867 34.3246 65.6537 35.0642C66.2437 38.9468 66.1829 43.2135 65.7903 46.5149L65.7583 46.7818C65.6666 47.5457 65.617 47.9591 65.5604 48.3673L65.5535 48.4199C65.2435 50.7702 64.9386 53.0818 65.0376 55.575C65.1309 57.9001 65.5712 60.1321 66.71 61.7437C67.9965 63.5723 69.9986 64.5723 73.0592 64.069C75.2608 63.7068 76.6534 62.5138 77.469 60.9086C78.3649 59.1407 78.4646 56.9022 78.1349 54.8437C77.9631 53.7594 77.7062 52.7733 77.3868 51.8511C82.0255 54.1609 86.0669 54.1035 89.2243 53.1624C92.9422 52.0542 95.2415 49.7786 95.7397 49.2855L95.7405 49.2847C96.3945 48.6375 96.3999 47.5827 95.7527 46.9288C95.1056 46.2749 94.0508 46.2694 93.3969 46.9166ZM70.9962 46.8666L70.8973 46.7128C70.3706 45.8944 69.829 45.0529 69.3021 44.1547C69.2457 45.1178 69.1654 46.0461 69.0657 46.9029C69.0443 47.0897 68.9999 47.4301 68.9468 47.8358L68.9467 47.8364C68.908 48.1324 68.8648 48.4632 68.8227 48.7943L68.8106 48.8865C68.5219 51.0867 68.2383 53.2481 68.326 55.4623C68.3954 57.2171 68.6861 58.8331 69.4084 59.8525C69.981 60.6616 70.9571 61.0911 72.5427 60.8286C73.5557 60.6616 74.1913 60.1324 74.5448 59.4296C75.0914 58.3407 75.1305 56.818 74.8984 55.3625C74.3771 52.1073 72.8422 49.7299 71.156 47.1184L71.156 47.1183L71.1559 47.1182L71.1415 47.0959L71.1437 47.096L70.9962 46.8666ZM37.8045 31.6531C38.7632 31.4535 39.6894 31.3668 40.5527 31.4037C40.8824 29.6315 41.7023 28.009 42.8715 26.5774C44.7564 24.2825 47.5676 22.5276 50.6389 21.5906C53.706 20.6514 57.0576 20.5017 59.9984 21.0505C61.4343 21.3173 62.7857 21.7597 63.9852 22.3628C65.547 16.7904 70.4771 12.0377 76.5293 9.49556C80.0931 8.00322 84.0668 7.26357 87.98 7.5672C91.9603 7.87738 95.8668 9.27211 99.2179 12.0399C106.37 17.9549 110.855 30.1435 107.552 51.5634C106.116 60.8568 108.346 66.5478 110.97 73.2431L110.972 73.2503C113.15 78.8033 115.582 85.0048 116.631 94.3081C118.759 113.048 111.3 130.14 103.932 147.025L103.925 147.041C97.4933 161.781 91.138 176.359 91.6672 191.317C91.8668 196.889 93.4394 204.75 95.2115 213.607C97.296 224.012 99.6517 235.78 100.441 247.248C102.226 273.251 95.9946 297.213 61.1177 299.601C23.6288 302.17 19.6596 257.017 16.2823 218.54C14.957 203.427 13.7206 189.378 10.5861 180.112C5.66005 165.533 2.76204 153.492 1.33271 143.233C-0.116265 132.878 -0.0793945 124.327 0.853341 116.82C1.18955 114.121 1.84243 111.763 2.47585 109.488C3.54523 105.644 4.54737 102.031 3.48881 97.2912C1.55395 92.5777 -0.428608 86.1703 0.0811505 80.5002C0.5974 74.728 3.49531 69.7981 11.0199 67.9695C10.9895 67.5465 10.9765 67.1105 10.97 66.6572C10.9504 63.0803 11.8398 58.7098 13.7811 55.0027C15.8266 51.0961 19.0304 47.875 23.577 46.8793L23.6137 46.8718L23.6844 46.8571L23.6856 46.8569C23.7971 46.8336 23.9074 46.8106 24.0239 46.7926C23.974 43.9445 24.9067 41.3828 26.399 39.1984C27.7851 37.1703 29.6635 35.4849 31.6721 34.2051V34.1986C33.6634 32.9296 35.826 32.0533 37.7848 31.6477L37.8045 31.6531ZM34.5826 56.4452L34.5798 56.4654C34.5141 56.5862 34.47 56.7215 34.4533 56.867C34.3956 57.4141 34.7521 57.9138 35.2768 58.0463C35.4687 58.1806 35.692 58.2765 35.9376 58.3205C39.5011 58.9597 41.9403 58.1806 43.5367 56.9191C45.0754 55.7032 45.5989 54.2168 45.7171 53.8789C46.0207 53.0104 45.5627 52.0602 44.6942 51.7566C43.8257 51.453 42.8755 51.911 42.5719 52.7795L42.5709 52.7824C42.5184 52.9326 42.2555 53.6851 41.471 54.305C40.7388 54.8836 39.3057 55.5398 36.5259 55.0411C35.6203 54.8787 34.7545 55.4811 34.5921 56.3867C34.5886 56.4062 34.5854 56.4257 34.5826 56.4452ZM83.2302 136.277C78.2912 137.884 70.3269 137.321 63.3407 133.665C56.444 130.056 50.6448 123.511 49.7163 113.24C49.6335 112.324 48.8236 111.648 47.9073 111.731C46.9909 111.814 46.3153 112.624 46.3981 113.54C47.4439 125.11 54.0576 132.567 61.7959 136.617C69.4447 140.62 78.3375 141.372 84.2609 139.445C85.1358 139.161 85.6144 138.221 85.3297 137.346C85.0451 136.471 84.1051 135.992 83.2302 136.277ZM30.3099 70.1214C30.6135 69.2529 30.1555 68.3027 29.287 67.9991C28.4185 67.6955 27.4684 68.1534 27.1648 69.0219L27.1637 69.0248C27.1112 69.1751 26.8483 69.9275 26.0638 70.5475C25.3316 71.1261 23.8985 71.7822 21.1187 71.2836C20.2131 71.1211 19.3473 71.7235 19.1849 72.6291C19.0224 73.5347 19.6249 74.4005 20.5304 74.563C24.0939 75.2022 26.5331 74.423 28.1295 73.1616C29.6682 71.9457 30.1917 70.4593 30.3099 70.1214ZM64 301.5H117V305.5H64V301.5Z" fill="#383838"/>
</svg>
